Patient4_TMGait_0pt2_03_right_22_EMG.mot
version=1
nRows=13
nColumns=33
inDegrees=no
endheader
time	1LAddLong	2LGlutMax	3LGlutMed	4LIliopsoas	5LSemiMemb	6LBicFemLong	7LRecFem	8LVastMed	9LVastLat	10LGasMed	11LTibAnt	12lTibPost	13LPeroneusLong	14LSol	15LExtDigLong	16LFlexDigLong	17RAddLong	18RGlutMax	19RGlutMed	20RIliopsoas	21RSemiMemb	22RBicFemLong	23RRecFem	24RVastMed	25RVastLat	26RGasMed	27RTibAnt	28RTibPost	29RPeroneusLong	30RSol	31RExtDigLong	32RFlexDigLong
47.06	-0.001831	0.10452	-0.010071	-0.000458	-0.02121	0.016785	-0.083923	0.017548	-0.046082	0.019531	0.004272	0.004883	0.52246	0.06958	-0.043335	-0.001373	0.015564	0.26428	0.63522	0.15381	-0.063934	0.19959	0.20248	0.17471	-0.013275	-0.003357	0.47287	-0.007782	-0.14725	0.049438	-0.001678	-0.023346
47.061	-0.011292	0.046692	0.13001	-0.016174	-0.063171	0.071411	-0.062408	0.025177	-0.1648	0.029907	0.013123	0.014954	0.35492	0.028687	-0.023041	0.002289	0.001068	0.30502	0.9642	0.15656	-0.004883	0.15076	0.22629	0.065765	-0.02655	-0.002594	0.29511	-0.005035	-0.12772	-0.011749	0.00061	-0.021973
47.062	-0.005798	0.024567	-0.024261	-0.010071	-0.086975	0.11841	-0.069427	0.035706	-0.22415	0.03479	0.00412	0.006866	0.059357	0.13443	-0.017853	-0.001221	-0.023041	0.27786	0.9198	0.12848	0.013275	0.065155	0.19318	0.11429	-0.024414	-0.00412	0.15259	-0.000916	-0.093231	-0.019989	0.000305	-0.028381
47.063	-0.006409	-0.037384	0.056	0.021515	-0.013733	0.091858	-0.15335	0.026855	-0.23346	0.046539	0.007629	0.006866	-0.023956	0.14633	0.033722	-0.002747	-0.037537	0.13519	0.86441	0.09552	-0.032959	0.055237	0.18036	0.071106	-0.013275	-0.003662	0.11231	-0.000916	-0.005646	0.032959	0.001831	-0.01709
47.064	0	-0.059662	0.012817	0.024872	0.076752	0.085144	-0.11566	0.028687	-0.030823	-0.016785	-0.014343	0.010834	0.19531	0.22964	0.055237	0.010376	-0.065613	0.091248	0.98114	0.059357	-0.070801	0.003815	0.19562	0.061951	-0.025635	-0.008698	0.050812	-0.001678	0.01297	0.075531	-0.002136	-0.020905
47.065	0.007019	-0.048676	-0.15289	-0.018616	0.096283	0.10819	-0.18234	0.029449	0.20584	-0.011139	0.000916	0.007324	0.11856	0.10498	-0.015106	0.014648	-0.10971	0.1239	0.97351	0.083313	-0.055389	-0.061798	0.19455	0.030823	-0.008545	-0.011597	0.008698	-0.003967	0.014191	0.098114	0.000458	-0.019989
47.066	0.009308	0.077057	-0.020294	-0.015564	0.053253	0.065155	-0.32608	0.017853	0.30411	0.011749	0.007782	-0.001984	0.28778	-0.14465	-0.093231	0.002136	-0.11139	0.14343	1.0619	0.094452	-0.046692	-0.10162	0.21881	0.043945	-0.018768	-0.012207	0.061646	-0.001984	0.000763	0.10361	-0.001526	-0.025024
47.067	0.009766	0.040283	-0.079651	0.002136	0.054321	0.12161	-0.27268	0.001678	0.29694	0.000458	-0.022888	0.000305	-0.038452	-0.11292	-0.13672	-0.006866	-0.093689	0.14069	1.0495	-0.098267	-0.070038	-0.070496	0.18585	0.039978	-0.020447	-0.014038	0.15732	0.000916	-0.084686	0.112	0.000763	-0.015869
47.068	-0.004425	-0.013123	-0.25375	0.034943	0.050812	0.14175	-0.18921	-0.009155	0.24078	0.018005	-0.027771	-0.001373	-0.026398	-0.063477	-0.072021	-0.012054	-0.10529	0.13886	0.6366	-0.2211	-0.085297	-0.057068	0.14206	0.086212	-0.010529	-0.012817	0.22293	-0.007629	-0.065765	0.065918	-0.001831	-0.021362
47.069	-0.02243	-0.011749	-0.070801	0.01709	0.041809	-0.005646	-0.08255	-0.052185	0.21759	-0.012207	0.006866	-0.000763	-0.31189	0.058594	0.092926	-0.005035	-0.072174	0.063324	1.5617	-0.43411	-0.10071	-0.052032	0.12573	0.11032	0.003815	-0.00885	0.14358	-0.00473	-0.022736	0.016174	-0.00473	-0.014496
47.07	-0.013885	0.014343	0.003357	0.000458	-0.011292	-0.31235	0.063629	-0.035553	0.14099	-0.029144	-0.020142	-0.002136	-0.037994	0.11108	0.080109	-0.010834	-0.065918	-0.026245	1.3649	-0.47607	-0.092316	-0.035706	0.12543	0.092926	0.000916	-0.008087	0.32242	-0.003967	-0.033722	0.003815	-0.002136	-0.022125
47.071	-0.00351	0.017548	0.14175	0.024414	-0.037842	-0.29511	0.23514	-0.029144	0.036163	-0.019531	0.015564	0.010681	0.233	0.070953	0.043793	0.002747	-0.055695	0.075073	1.4647	-0.29236	-0.083313	-0.034332	0.084229	0.13473	0.021973	-0.010986	0.72693	-0.000305	-0.12558	-0.020752	-0.003204	-0.022888
47.072	0.005341	-0.05249	0.26977	0.016632	-0.062714	-0.18753	0.43091	-0.029449	-0.088501	-0.027924	0.00885	0.002441	0.022583	0.08667	0.050354	0.001831	-0.024261	0.050812	1.0658	-0.094604	-0.069733	-0.019531	0.075073	0.15457	0.027924	-0.01236	0.97168	-0.006866	-0.19852	0.020294	0.000153	-0.028992
